<svg fill="#ffff" width="48px" height="48px" viewBox="0 0 1.92 1.92" version="1.1" xmlns="http://www.w3.org/2000/svg">
  <title>s</title>
  <path d="M1.481 1.153c-0.021 -0.041 -0.048 -0.076 -0.081 -0.105l0 0c-0.037 -0.03 -0.08 -0.055 -0.127 -0.073l-0.003 -0.001c-0.037 -0.016 -0.083 -0.033 -0.131 -0.047l-0.008 -0.002c-0.038 -0.01 -0.09 -0.024 -0.158 -0.041q-0.079 -0.019 -0.13 -0.034c-0.044 -0.013 -0.08 -0.027 -0.115 -0.043l0.006 0.003c-0.033 -0.013 -0.061 -0.03 -0.085 -0.051l0.001 0c-0.02 -0.018 -0.037 -0.04 -0.049 -0.065l-0.001 -0.001c-0.012 -0.024 -0.02 -0.052 -0.02 -0.082 0 -0.001 0 -0.003 0 -0.004l0 0c0 -0.002 0 -0.004 0 -0.006 0 -0.067 0.034 -0.126 0.086 -0.161l0.001 0c0.069 -0.043 0.153 -0.068 0.242 -0.068 0.01 0 0.02 0 0.03 0.001l-0.001 0c0.007 0 0.016 -0.001 0.025 -0.001 0.098 0 0.189 0.027 0.268 0.074l-0.002 -0.001c0.061 0.039 0.1 0.107 0.1 0.183 0 0.006 0 0.012 -0.001 0.018l0 -0.001c0 0.027 0.022 0.048 0.048 0.048h0.056c0.027 0 0.048 -0.021 0.048 -0.048v-0.013c0 -0.004 0 -0.008 0 -0.012 0 -0.123 -0.062 -0.231 -0.157 -0.294l-0.001 -0.001c-0.101 -0.065 -0.224 -0.104 -0.356 -0.104 -0.009 0 -0.019 0 -0.028 0.001l0.001 0c-0.01 -0.001 -0.021 -0.001 -0.032 -0.001 -0.125 0 -0.241 0.037 -0.338 0.102l0.002 -0.001c-0.087 0.062 -0.143 0.162 -0.143 0.276 0 0.004 0 0.008 0 0.011l0 -0.001c0 0.001 0 0.003 0 0.004 0 0.054 0.013 0.106 0.036 0.151l-0.001 -0.002c0.021 0.043 0.049 0.079 0.082 0.109l0 0c0.036 0.03 0.077 0.056 0.122 0.074l0.003 0.001c0.034 0.016 0.077 0.032 0.122 0.046l0.008 0.002c0.036 0.01 0.082 0.022 0.137 0.035 0.056 0.014 0.097 0.024 0.123 0.031q0.038 0.01 0.104 0.031c0.033 0.009 0.062 0.022 0.089 0.038l-0.002 -0.001c0.024 0.016 0.045 0.032 0.064 0.049l-0.001 0c0.017 0.014 0.03 0.032 0.038 0.052l0 0.001c0.008 0.021 0.012 0.045 0.012 0.07 0 0.001 0 0.002 0 0.003l0 0c0 0.002 0 0.004 0 0.006 0 0.071 -0.037 0.133 -0.093 0.168l-0.001 0c-0.075 0.044 -0.165 0.07 -0.262 0.07 -0.011 0 -0.021 0 -0.032 -0.001l0.001 0c-0.007 0 -0.016 0.001 -0.024 0.001 -0.101 0 -0.195 -0.026 -0.277 -0.072l0.003 0.002c-0.067 -0.039 -0.113 -0.108 -0.12 -0.188l0 -0.001c-0.003 -0.024 -0.023 -0.042 -0.048 -0.042 -0.004 0 -0.008 0 -0.012 0.001l0 0 -0.056 0.013c-0.021 0.005 -0.037 0.024 -0.037 0.047 0 0.002 0 0.004 0 0.006l0 0c0.014 0.122 0.082 0.225 0.18 0.286l0.002 0.001c0.102 0.061 0.226 0.097 0.358 0.097 0.01 0 0.02 0 0.03 -0.001l-0.001 0c0.011 0.001 0.023 0.001 0.035 0.001 0.132 0 0.254 -0.038 0.358 -0.103l-0.003 0.002c0.092 -0.062 0.151 -0.166 0.151 -0.283 0 -0.003 0 -0.007 0 -0.01l0 0c0 -0.001 0 -0.003 0 -0.004 0 -0.053 -0.013 -0.103 -0.036 -0.147l0.001 0.002z"/>
</svg>
